# xmcd
#
# Track frame offsets: 
#        150
#        13564
#        24666
#        36330
#        49425
#        65230
#        77102
#        89445
#        108282
#        121468
#        133444
#        143363
#        158667
#        169290
#        181033
#        194714
#        206037
#        217625
#
# Disc length: 3102 seconds
#
# Revision: 0
# Processed by: cddbd v1.5.2PL0 Copyright (c) Steve Scherf et al.
# Submitted via: ExactAudioCopy v0.99pb4
#
DISCID=060c1c12
DTITLE=Kenny Rogers - The Best Of
DYEAR=1900
DGENRE=Country
TTITLE0=A Stranger in my Place
TTITLE1=Always Leaving Aways Gone
TTITLE2=Poem for my Little Lady
TTITLE3=Ruby Don't Take Your Love to Town
TTITLE4=Tulsa Turnaround
TTITLE5=Elvira
TTITLE6=Reuben James
TTITLE7=The King of Oak Street
TTITLE8=Shine On Ruby Mountain
TTITLE9=Me and Bobby McGee
TTITLE10=Where Does Rosie Go?
TTITLE11=For the Good Times
TTITLE12=Goodtime Liberator
TTITLE13=Calico Silver
TTITLE14=I'm Going to Sing You a Sad Song Suzy
TTITLE15=If Wishes Were Horses
TTITLE16=What am I Gonna Do?
TTITLE17=Tell it All Brother
EXTD=
EXTT0=
EXTT1=
EXTT2=
EXTT3=
EXTT4=
EXTT5=
EXTT6=
EXTT7=
EXTT8=
EXTT9=
EXTT10=
EXTT11=
EXTT12=
EXTT13=
EXTT14=
EXTT15=
EXTT16=
EXTT17=
PLAYORDER=
